solid OpenSCAD_Model
  facet normal 1 0 0
    outer loop
      vertex 11 10 0
      vertex 11 30 0
      vertex 11 30 10
    endloop
  endfacet
  facet normal 1 0 0
    outer loop
      vertex 11 10 10
      vertex 11 10 0
      vertex 11 30 10
    endloop
  endfacet
  facet normal 0 0 -1
    outer loop
      vertex 0 4.05032 0
      vertex 1.50175 3.62304 0
      vertex 0 0.261202 0
    endloop
  endfacet
  facet normal 0 0 -1
    outer loop
      vertex 0 0.261202 0
      vertex 1.50175 3.62304 0
      vertex 3.47778 3.80614 0
    endloop
  endfacet
  facet normal 0 0 -1
    outer loop
      vertex 3.47778 3.80614 0
      vertex 5.25423 4.69071 0
      vertex 0 0.261202 0
    endloop
  endfacet
  facet normal 0 0 -1
    outer loop
      vertex 5.25423 13.3093 0
      vertex 0 26.0503 0
      vertex 6.59117 11.8427 0
    endloop
  endfacet
  facet normal 0 0 -1
    outer loop
      vertex 3.47778 14.1939 0
      vertex 0 26.0503 0
      vertex 5.25423 13.3093 0
    endloop
  endfacet
  facet normal 0 0 -1
    outer loop
      vertex 1.50175 14.377 0
      vertex 0 13.9497 0
      vertex 0 26.0503 0
    endloop
  endfacet
  facet normal 0 0 -1
    outer loop
      vertex 1.50175 14.377 0
      vertex 0 26.0503 0
      vertex 3.47778 14.1939 0
    endloop
  endfacet
  facet normal 0 0 -1
    outer loop
      vertex 6.59117 11.8427 0
      vertex 0 26.0503 0
      vertex 1.50175 25.623 0
    endloop
  endfacet
  facet normal 0 0 -1
    outer loop
      vertex 6.59117 11.8427 0
      vertex 1.50175 25.623 0
      vertex 7.30805 9.99225 0
    endloop
  endfacet
  facet normal 0 0 -1
    outer loop
      vertex 7.30805 9.99225 0
      vertex 1.50175 25.623 0
      vertex 3.47778 25.8061 0
    endloop
  endfacet
  facet normal 0 0 -1
    outer loop
      vertex 7.30805 9.99225 0
      vertex 8.53396 37.1893 0
      vertex 7.30805 8.00775 0
    endloop
  endfacet
  facet normal 0 0 -1
    outer loop
      vertex 3.47778 25.8061 0
      vertex 5.25423 26.6907 0
      vertex 7.30805 9.99225 0
    endloop
  endfacet
  facet normal 0 0 -1
    outer loop
      vertex 5.25423 26.6907 0
      vertex 6.59117 28.1573 0
      vertex 7.30805 9.99225 0
    endloop
  endfacet
  facet normal 0 0 -1
    outer loop
      vertex 6.59117 28.1573 0
      vertex 7.30805 30.0078 0
      vertex 7.30805 9.99225 0
    endloop
  endfacet
  facet normal 0 0 -1
    outer loop
      vertex 7.30805 30.0078 0
      vertex 8.53396 37.1893 0
      vertex 7.30805 9.99225 0
    endloop
  endfacet
  facet normal 0 0 -1
    outer loop
      vertex 3.47778 36.1939 0
      vertex 0 39.7388 0
      vertex 5.25423 35.3093 0
    endloop
  endfacet
  facet normal 0 0 -1
    outer loop
      vertex 1.50175 36.377 0
      vertex 0 35.9497 0
      vertex 0 39.7388 0
    endloop
  endfacet
  facet normal 0 0 -1
    outer loop
      vertex 1.50175 36.377 0
      vertex 0 39.7388 0
      vertex 3.47778 36.1939 0
    endloop
  endfacet
  facet normal 0 0 -1
    outer loop
      vertex 5.25423 35.3093 0
      vertex 0 39.7388 0
      vertex 1.51275 39.9868 0
    endloop
  endfacet
  facet normal 0 0 -1
    outer loop
      vertex 5.25423 35.3093 0
      vertex 1.51275 39.9868 0
      vertex 6.59117 33.8427 0
    endloop
  endfacet
  facet normal 0 0 -1
    outer loop
      vertex 6.59117 33.8427 0
      vertex 1.51275 39.9868 0
      vertex 3.45604 39.8814 0
    endloop
  endfacet
  facet normal 0 0 -1
    outer loop
      vertex 6.59117 33.8427 0
      vertex 3.45604 39.8814 0
      vertex 5.33124 39.3608 0
    endloop
  endfacet
  facet normal 0 0 -1
    outer loop
      vertex 6.59117 33.8427 0
      vertex 5.33124 39.3608 0
      vertex 7.30805 31.9922 0
    endloop
  endfacet
  facet normal 0 0 -1
    outer loop
      vertex 7.30805 31.9922 0
      vertex 5.33124 39.3608 0
      vertex 7.05068 38.4492 0
    endloop
  endfacet
  facet normal 0 0 -1
    outer loop
      vertex 7.30805 31.9922 0
      vertex 7.05068 38.4492 0
      vertex 8.53396 37.1893 0
    endloop
  endfacet
  facet normal 0 0 -1
    outer loop
      vertex 7.30805 31.9922 0
      vertex 8.53396 37.1893 0
      vertex 7.30805 30.0078 0
    endloop
  endfacet
  facet normal 0 0 -1
    outer loop
      vertex 7.30805 8.00775 0
      vertex 8.53396 37.1893 0
      vertex 9.71171 35.64 0
    endloop
  endfacet
  facet normal 0 0 -1
    outer loop
      vertex 7.30805 8.00775 0
      vertex 9.71171 35.64 0
      vertex 10.5289 33.8737 0
    endloop
  endfacet
  facet normal 0 0 -1
    outer loop
      vertex 7.30805 8.00775 0
      vertex 10.5289 33.8737 0
      vertex 10.9472 31.9731 0
    endloop
  endfacet
  facet normal 0 0 -1
    outer loop
      vertex 10.9413 30 0
      vertex 10.9472 31.9731 0
      vertex 10.9472 30.0269 0
    endloop
  endfacet
  facet normal 0 0 -1
    outer loop
      vertex 7.30805 8.00775 0
      vertex 10.9472 31.9731 0
      vertex 10.9413 30 0
    endloop
  endfacet
  facet normal 0 0 -1
    outer loop
      vertex 10.9472 8.02693 0
      vertex 6.59117 6.15727 0
      vertex 7.30805 8.00775 0
    endloop
  endfacet
  facet normal 0 0 -1
    outer loop
      vertex 10.9472 8.02693 0
      vertex 5.25423 4.69071 0
      vertex 6.59117 6.15727 0
    endloop
  endfacet
  facet normal 0 0 -1
    outer loop
      vertex 10.9413 10 0
      vertex 11 30 0
      vertex 11 10 0
    endloop
  endfacet
  facet normal 0 0 -1
    outer loop
      vertex 7.30805 8.00775 0
      vertex 11 30 0
      vertex 10.9413 10 0
    endloop
  endfacet
  facet normal 0 0 -1
    outer loop
      vertex 7.30805 8.00775 0
      vertex 10.9413 10 0
      vertex 10.9472 9.97307 0
    endloop
  endfacet
  facet normal 0 0 -1
    outer loop
      vertex 5.25423 4.69071 0
      vertex 10.9472 8.02693 0
      vertex 0 0.261202 0
    endloop
  endfacet
  facet normal 0 0 -1
    outer loop
      vertex 0 0.261202 0
      vertex 10.9472 8.02693 0
      vertex 10.5289 6.12629 0
    endloop
  endfacet
  facet normal 0 0 -1
    outer loop
      vertex 0 0.261202 0
      vertex 10.5289 6.12629 0
      vertex 9.71171 4.36002 0
    endloop
  endfacet
  facet normal 0 0 -1
    outer loop
      vertex 0 0.261202 0
      vertex 9.71171 4.36002 0
      vertex 8.53396 2.81071 0
    endloop
  endfacet
  facet normal 0 0 -1
    outer loop
      vertex 0 0.261202 0
      vertex 8.53396 2.81071 0
      vertex 7.05068 1.5508 0
    endloop
  endfacet
  facet normal 0 0 -1
    outer loop
      vertex 0 0.261202 0
      vertex 7.05068 1.5508 0
      vertex 5.33124 0.63921 0
    endloop
  endfacet
  facet normal 0 0 -1
    outer loop
      vertex 0 0.261202 0
      vertex 5.33124 0.63921 0
      vertex 3.45604 0.118561 0
    endloop
  endfacet
  facet normal 0 0 -1
    outer loop
      vertex 0 0.261202 0
      vertex 3.45604 0.118561 0
      vertex 1.51275 0.013199 0
    endloop
  endfacet
  facet normal 0 0 -1
    outer loop
      vertex 11 30 0
      vertex 7.30805 8.00775 0
      vertex 10.9413 30 0
    endloop
  endfacet
  facet normal 0 0 -1
    outer loop
      vertex 10.9472 8.02693 0
      vertex 7.30805 8.00775 0
      vertex 10.9472 9.97307 0
    endloop
  endfacet
  facet normal 0 -1 0
    outer loop
      vertex 10.9413 10 0
      vertex 11 10 0
      vertex 11 10 10
    endloop
  endfacet
  facet normal 0 -1 0
    outer loop
      vertex 10.9413 10 10
      vertex 10.9413 10 0
      vertex 11 10 10
    endloop
  endfacet
  facet normal 0 0 1
    outer loop
      vertex 0 0.261202 10
      vertex 1.51275 0.013199 10
      vertex 3.45604 0.118561 10
    endloop
  endfacet
  facet normal 0 0 1
    outer loop
      vertex 7.05068 1.5508 10
      vertex 0 0.261202 10
      vertex 5.33124 0.63921 10
    endloop
  endfacet
  facet normal 0 0 1
    outer loop
      vertex 5.33124 0.63921 10
      vertex 0 0.261202 10
      vertex 3.45604 0.118561 10
    endloop
  endfacet
  facet normal 0 0 1
    outer loop
      vertex 8.53396 2.81071 10
      vertex 0 0.261202 10
      vertex 7.05068 1.5508 10
    endloop
  endfacet
  facet normal 0 0 1
    outer loop
      vertex 9.71171 4.36002 10
      vertex 0 0.261202 10
      vertex 8.53396 2.81071 10
    endloop
  endfacet
  facet normal 0 0 1
    outer loop
      vertex 10.5289 6.12629 10
      vertex 0 0.261202 10
      vertex 9.71171 4.36002 10
    endloop
  endfacet
  facet normal 0 0 1
    outer loop
      vertex 10.9472 8.02693 10
      vertex 0 0.261202 10
      vertex 10.5289 6.12629 10
    endloop
  endfacet
  facet normal 0 0 1
    outer loop
      vertex 5.25423 4.69071 10
      vertex 0 0.261202 10
      vertex 10.9472 8.02693 10
    endloop
  endfacet
  facet normal 0 0 1
    outer loop
      vertex 5.25423 4.69071 10
      vertex 3.47778 3.80614 10
      vertex 0 0.261202 10
    endloop
  endfacet
  facet normal 0 0 1
    outer loop
      vertex 11 30 10
      vertex 10.9413 10 10
      vertex 11 10 10
    endloop
  endfacet
  facet normal 0 0 1
    outer loop
      vertex 6.59117 6.15727 10
      vertex 10.9472 9.97307 10
      vertex 10.9413 10 10
    endloop
  endfacet
  facet normal 0 0 1
    outer loop
      vertex 6.59117 6.15727 10
      vertex 5.25423 4.69071 10
      vertex 10.9472 9.97307 10
    endloop
  endfacet
  facet normal 0 0 1
    outer loop
      vertex 3.47778 3.80614 10
      vertex 1.50175 3.62304 10
      vertex 0 0.261202 10
    endloop
  endfacet
  facet normal 0 0 1
    outer loop
      vertex 3.47778 14.1939 10
      vertex 10.9472 30.0269 10
      vertex 10.9472 31.9731 10
    endloop
  endfacet
  facet normal 0 0 1
    outer loop
      vertex 5.25423 35.3093 10
      vertex 6.59117 33.8427 10
      vertex 7.05068 38.4492 10
    endloop
  endfacet
  facet normal 0 0 1
    outer loop
      vertex 0 39.7388 10
      vertex 0 35.9497 10
      vertex 1.51275 39.9868 10
    endloop
  endfacet
  facet normal 0 0 1
    outer loop
      vertex 1.51275 39.9868 10
      vertex 1.50175 36.377 10
      vertex 3.45604 39.8814 10
    endloop
  endfacet
  facet normal 0 0 1
    outer loop
      vertex 3.45604 39.8814 10
      vertex 3.47778 36.1939 10
      vertex 5.33124 39.3608 10
    endloop
  endfacet
  facet normal 0 0 1
    outer loop
      vertex 5.33124 39.3608 10
      vertex 5.25423 35.3093 10
      vertex 7.05068 38.4492 10
    endloop
  endfacet
  facet normal 0 0 1
    outer loop
      vertex 7.05068 38.4492 10
      vertex 6.59117 33.8427 10
      vertex 8.53396 37.1893 10
    endloop
  endfacet
  facet normal 0 0 1
    outer loop
      vertex 6.59117 33.8427 10
      vertex 7.30805 31.9922 10
      vertex 8.53396 37.1893 10
    endloop
  endfacet
  facet normal 0 0 1
    outer loop
      vertex 8.53396 37.1893 10
      vertex 7.30805 30.0078 10
      vertex 9.71171 35.64 10
    endloop
  endfacet
  facet normal 0 0 1
    outer loop
      vertex 3.47778 14.1939 10
      vertex 10.5289 33.8737 10
      vertex 9.71171 35.64 10
    endloop
  endfacet
  facet normal 0 0 1
    outer loop
      vertex 3.47778 14.1939 10
      vertex 10.9472 31.9731 10
      vertex 10.5289 33.8737 10
    endloop
  endfacet
  facet normal 0 0 1
    outer loop
      vertex 3.47778 25.8061 10
      vertex 1.50175 25.623 10
      vertex 1.50175 14.377 10
    endloop
  endfacet
  facet normal 0 0 1
    outer loop
      vertex 7.30805 31.9922 10
      vertex 7.30805 30.0078 10
      vertex 8.53396 37.1893 10
    endloop
  endfacet
  facet normal 0 0 1
    outer loop
      vertex 3.47778 14.1939 10
      vertex 10.9413 30 10
      vertex 10.9472 30.0269 10
    endloop
  endfacet
  facet normal 0 0 1
    outer loop
      vertex 3.47778 36.1939 10
      vertex 5.25423 35.3093 10
      vertex 5.33124 39.3608 10
    endloop
  endfacet
  facet normal 0 0 1
    outer loop
      vertex 1.50175 14.377 10
      vertex 7.30805 30.0078 10
      vertex 6.59117 28.1573 10
    endloop
  endfacet
  facet normal 0 0 1
    outer loop
      vertex 1.50175 14.377 10
      vertex 3.47778 14.1939 10
      vertex 7.30805 30.0078 10
    endloop
  endfacet
  facet normal 0 0 1
    outer loop
      vertex 1.50175 25.623 10
      vertex 0 26.0503 10
      vertex 0 13.9497 10
    endloop
  endfacet
  facet normal 0 0 1
    outer loop
      vertex 1.50175 14.377 10
      vertex 6.59117 28.1573 10
      vertex 5.25423 26.6907 10
    endloop
  endfacet
  facet normal 0 0 1
    outer loop
      vertex 1.50175 14.377 10
      vertex 5.25423 26.6907 10
      vertex 3.47778 25.8061 10
    endloop
  endfacet
  facet normal 0 0 1
    outer loop
      vertex 7.30805 30.0078 10
      vertex 3.47778 14.1939 10
      vertex 9.71171 35.64 10
    endloop
  endfacet
  facet normal 0 0 1
    outer loop
      vertex 11 30 10
      vertex 5.25423 13.3093 10
      vertex 10.9413 10 10
    endloop
  endfacet
  facet normal 0 0 1
    outer loop
      vertex 5.25423 13.3093 10
      vertex 6.59117 11.8427 10
      vertex 10.9413 10 10
    endloop
  endfacet
  facet normal 0 0 1
    outer loop
      vertex 6.59117 11.8427 10
      vertex 7.30805 9.99225 10
      vertex 10.9413 10 10
    endloop
  endfacet
  facet normal 0 0 1
    outer loop
      vertex 7.30805 9.99225 10
      vertex 7.30805 8.00775 10
      vertex 10.9413 10 10
    endloop
  endfacet
  facet normal 0 0 1
    outer loop
      vertex 7.30805 8.00775 10
      vertex 6.59117 6.15727 10
      vertex 10.9413 10 10
    endloop
  endfacet
  facet normal 0 0 1
    outer loop
      vertex 10.9472 9.97307 10
      vertex 5.25423 4.69071 10
      vertex 10.9472 8.02693 10
    endloop
  endfacet
  facet normal 0 0 1
    outer loop
      vertex 1.50175 3.62304 10
      vertex 0 4.05032 10
      vertex 0 0.261202 10
    endloop
  endfacet
  facet normal 0 0 1
    outer loop
      vertex 1.50175 36.377 10
      vertex 3.47778 36.1939 10
      vertex 3.45604 39.8814 10
    endloop
  endfacet
  facet normal 0 0 1
    outer loop
      vertex 0 13.9497 10
      vertex 1.50175 14.377 10
      vertex 1.50175 25.623 10
    endloop
  endfacet
  facet normal 0 0 1
    outer loop
      vertex 0 35.9497 10
      vertex 1.50175 36.377 10
      vertex 1.51275 39.9868 10
    endloop
  endfacet
  facet normal 0 0 1
    outer loop
      vertex 3.47778 14.1939 10
      vertex 11 30 10
      vertex 10.9413 30 10
    endloop
  endfacet
  facet normal 0 0 1
    outer loop
      vertex 3.47778 14.1939 10
      vertex 5.25423 13.3093 10
      vertex 11 30 10
    endloop
  endfacet
  facet normal 0 1 0
    outer loop
      vertex 10.9413 30 10
      vertex 11 30 10
      vertex 10.9413 30 0
    endloop
  endfacet
  facet normal 0 1 0
    outer loop
      vertex 10.9413 30 0
      vertex 11 30 10
      vertex 11 30 0
    endloop
  endfacet
  facet normal -1 0 0
    outer loop
      vertex 0 0.261202 10
      vertex 0 4.05032 10
      vertex 0 0.261202 0
    endloop
  endfacet
  facet normal -1 0 0
    outer loop
      vertex 0 0.261202 0
      vertex 0 4.05032 10
      vertex 0 4.05032 0
    endloop
  endfacet
  facet normal -0.161782 -0.986827 0
    outer loop
      vertex 0 0.261202 0
      vertex 1.51275 0.013199 0
      vertex 1.51275 0.013199 10
    endloop
  endfacet
  facet normal -0.161782 -0.986827 0
    outer loop
      vertex 0 0.261202 10
      vertex 0 0.261202 0
      vertex 1.51275 0.013199 10
    endloop
  endfacet
  facet normal 0.0541389 -0.998533 0
    outer loop
      vertex 1.51275 0.013199 0
      vertex 3.45604 0.118561 0
      vertex 3.45604 0.118561 10
    endloop
  endfacet
  facet normal 0.0541389 -0.998533 0
    outer loop
      vertex 1.51275 0.013199 10
      vertex 1.51275 0.013199 0
      vertex 3.45604 0.118561 10
    endloop
  endfacet
  facet normal 0.267529 -0.96355 0
    outer loop
      vertex 3.45604 0.118561 0
      vertex 5.33124 0.63921 0
      vertex 5.33124 0.63921 10
    endloop
  endfacet
  facet normal 0.267529 -0.96355 0
    outer loop
      vertex 3.45604 0.118561 10
      vertex 3.45604 0.118561 0
      vertex 5.33124 0.63921 10
    endloop
  endfacet
  facet normal 0.468408 -0.883512 0
    outer loop
      vertex 5.33124 0.63921 0
      vertex 7.05068 1.5508 0
      vertex 7.05068 1.5508 10
    endloop
  endfacet
  facet normal 0.468408 -0.883512 0
    outer loop
      vertex 5.33124 0.63921 10
      vertex 5.33124 0.63921 0
      vertex 7.05068 1.5508 10
    endloop
  endfacet
  facet normal 0.647387 -0.762162 0
    outer loop
      vertex 7.05068 1.5508 0
      vertex 8.53396 2.81071 0
      vertex 8.53396 2.81071 10
    endloop
  endfacet
  facet normal 0.647387 -0.762162 0
    outer loop
      vertex 7.05068 1.5508 10
      vertex 7.05068 1.5508 0
      vertex 8.53396 2.81071 10
    endloop
  endfacet
  facet normal 0.796093 -0.605175 0
    outer loop
      vertex 8.53396 2.81071 0
      vertex 9.71171 4.36002 0
      vertex 9.71171 4.36002 10
    endloop
  endfacet
  facet normal 0.796093 -0.605175 0
    outer loop
      vertex 8.53396 2.81071 10
      vertex 8.53396 2.81071 0
      vertex 9.71171 4.36002 10
    endloop
  endfacet
  facet normal 0.907575 -0.419889 0
    outer loop
      vertex 9.71171 4.36002 0
      vertex 10.5289 6.12629 0
      vertex 10.5289 6.12629 10
    endloop
  endfacet
  facet normal 0.907575 -0.419889 0
    outer loop
      vertex 9.71171 4.36002 10
      vertex 9.71171 4.36002 0
      vertex 10.5289 6.12629 10
    endloop
  endfacet
  facet normal 0.976621 -0.21497 0
    outer loop
      vertex 10.5289 6.12629 0
      vertex 10.9472 8.02693 0
      vertex 10.9472 8.02693 10
    endloop
  endfacet
  facet normal 0.976621 -0.21497 0
    outer loop
      vertex 10.5289 6.12629 10
      vertex 10.5289 6.12629 0
      vertex 10.9472 8.02693 10
    endloop
  endfacet
  facet normal 1 0 0
    outer loop
      vertex 10.9472 8.02693 0
      vertex 10.9472 9.97307 0
      vertex 10.9472 9.97307 10
    endloop
  endfacet
  facet normal 1 0 0
    outer loop
      vertex 10.9472 8.02693 10
      vertex 10.9472 8.02693 0
      vertex 10.9472 9.97307 10
    endloop
  endfacet
  facet normal 0.976621 0.21497 0
    outer loop
      vertex 10.9413 10 0
      vertex 10.9413 10 10
      vertex 10.9472 9.97307 10
    endloop
  endfacet
  facet normal 0.976621 0.21497 0
    outer loop
      vertex 10.9472 9.97307 0
      vertex 10.9413 10 0
      vertex 10.9472 9.97307 10
    endloop
  endfacet
  facet normal 0.976621 -0.21497 0
    outer loop
      vertex 10.9413 30 0
      vertex 10.9472 30.0269 0
      vertex 10.9472 30.0269 10
    endloop
  endfacet
  facet normal 0.976621 -0.21497 0
    outer loop
      vertex 10.9413 30 10
      vertex 10.9413 30 0
      vertex 10.9472 30.0269 10
    endloop
  endfacet
  facet normal 1 0 0
    outer loop
      vertex 10.9472 30.0269 0
      vertex 10.9472 31.9731 0
      vertex 10.9472 31.9731 10
    endloop
  endfacet
  facet normal 1 0 0
    outer loop
      vertex 10.9472 30.0269 10
      vertex 10.9472 30.0269 0
      vertex 10.9472 31.9731 10
    endloop
  endfacet
  facet normal 0.976621 0.21497 0
    outer loop
      vertex 10.5289 33.8737 0
      vertex 10.5289 33.8737 10
      vertex 10.9472 31.9731 10
    endloop
  endfacet
  facet normal 0.976621 0.21497 0
    outer loop
      vertex 10.9472 31.9731 0
      vertex 10.5289 33.8737 0
      vertex 10.9472 31.9731 10
    endloop
  endfacet
  facet normal 0.907575 0.419889 0
    outer loop
      vertex 9.71171 35.64 0
      vertex 9.71171 35.64 10
      vertex 10.5289 33.8737 10
    endloop
  endfacet
  facet normal 0.907575 0.419889 0
    outer loop
      vertex 10.5289 33.8737 0
      vertex 9.71171 35.64 0
      vertex 10.5289 33.8737 10
    endloop
  endfacet
  facet normal 0.796093 0.605175 0
    outer loop
      vertex 8.53396 37.1893 0
      vertex 8.53396 37.1893 10
      vertex 9.71171 35.64 10
    endloop
  endfacet
  facet normal 0.796093 0.605175 0
    outer loop
      vertex 9.71171 35.64 0
      vertex 8.53396 37.1893 0
      vertex 9.71171 35.64 10
    endloop
  endfacet
  facet normal 0.647387 0.762162 0
    outer loop
      vertex 7.05068 38.4492 10
      vertex 8.53396 37.1893 10
      vertex 7.05068 38.4492 0
    endloop
  endfacet
  facet normal 0.647387 0.762162 0
    outer loop
      vertex 7.05068 38.4492 0
      vertex 8.53396 37.1893 10
      vertex 8.53396 37.1893 0
    endloop
  endfacet
  facet normal 0.468408 0.883512 0
    outer loop
      vertex 5.33124 39.3608 10
      vertex 7.05068 38.4492 10
      vertex 5.33124 39.3608 0
    endloop
  endfacet
  facet normal 0.468408 0.883512 0
    outer loop
      vertex 5.33124 39.3608 0
      vertex 7.05068 38.4492 10
      vertex 7.05068 38.4492 0
    endloop
  endfacet
  facet normal 0.267529 0.96355 0
    outer loop
      vertex 3.45604 39.8814 10
      vertex 5.33124 39.3608 10
      vertex 3.45604 39.8814 0
    endloop
  endfacet
  facet normal 0.267529 0.96355 0
    outer loop
      vertex 3.45604 39.8814 0
      vertex 5.33124 39.3608 10
      vertex 5.33124 39.3608 0
    endloop
  endfacet
  facet normal 0.0541389 0.998533 0
    outer loop
      vertex 1.51275 39.9868 10
      vertex 3.45604 39.8814 10
      vertex 1.51275 39.9868 0
    endloop
  endfacet
  facet normal 0.0541389 0.998533 0
    outer loop
      vertex 1.51275 39.9868 0
      vertex 3.45604 39.8814 10
      vertex 3.45604 39.8814 0
    endloop
  endfacet
  facet normal -0.161782 0.986827 0
    outer loop
      vertex 0 39.7388 10
      vertex 1.51275 39.9868 10
      vertex 0 39.7388 0
    endloop
  endfacet
  facet normal -0.161782 0.986827 0
    outer loop
      vertex 0 39.7388 0
      vertex 1.51275 39.9868 10
      vertex 1.51275 39.9868 0
    endloop
  endfacet
  facet normal -1 0 0
    outer loop
      vertex 0 35.9497 10
      vertex 0 39.7388 10
      vertex 0 35.9497 0
    endloop
  endfacet
  facet normal -1 0 0
    outer loop
      vertex 0 35.9497 0
      vertex 0 39.7388 10
      vertex 0 39.7388 0
    endloop
  endfacet
  facet normal 0.273663 -0.961826 0
    outer loop
      vertex 0 35.9497 0
      vertex 1.50175 36.377 0
      vertex 1.50175 36.377 10
    endloop
  endfacet
  facet normal 0.273663 -0.961826 0
    outer loop
      vertex 0 35.9497 10
      vertex 0 35.9497 0
      vertex 1.50175 36.377 10
    endloop
  endfacet
  facet normal -0.0922688 -0.995734 0
    outer loop
      vertex 1.50175 36.377 0
      vertex 3.47778 36.1939 0
      vertex 3.47778 36.1939 10
    endloop
  endfacet
  facet normal -0.0922688 -0.995734 0
    outer loop
      vertex 1.50175 36.377 10
      vertex 1.50175 36.377 0
      vertex 3.47778 36.1939 10
    endloop
  endfacet
  facet normal -0.445738 -0.895163 0
    outer loop
      vertex 3.47778 36.1939 0
      vertex 5.25423 35.3093 0
      vertex 5.25423 35.3093 10
    endloop
  endfacet
  facet normal -0.445738 -0.895163 0
    outer loop
      vertex 3.47778 36.1939 10
      vertex 3.47778 36.1939 0
      vertex 5.25423 35.3093 10
    endloop
  endfacet
  facet normal -0.739009 -0.673696 0
    outer loop
      vertex 6.59117 33.8427 0
      vertex 6.59117 33.8427 10
      vertex 5.25423 35.3093 0
    endloop
  endfacet
  facet normal -0.739009 -0.673696 0
    outer loop
      vertex 5.25423 35.3093 0
      vertex 6.59117 33.8427 10
      vertex 5.25423 35.3093 10
    endloop
  endfacet
  facet normal -0.932472 -0.361241 0
    outer loop
      vertex 7.30805 31.9922 0
      vertex 7.30805 31.9922 10
      vertex 6.59117 33.8427 0
    endloop
  endfacet
  facet normal -0.932472 -0.361241 0
    outer loop
      vertex 6.59117 33.8427 0
      vertex 7.30805 31.9922 10
      vertex 6.59117 33.8427 10
    endloop
  endfacet
  facet normal -1 0 0
    outer loop
      vertex 7.30805 30.0078 10
      vertex 7.30805 31.9922 10
      vertex 7.30805 30.0078 0
    endloop
  endfacet
  facet normal -1 0 0
    outer loop
      vertex 7.30805 30.0078 0
      vertex 7.30805 31.9922 10
      vertex 7.30805 31.9922 0
    endloop
  endfacet
  facet normal -0.932472 0.361241 0
    outer loop
      vertex 6.59117 28.1573 10
      vertex 7.30805 30.0078 10
      vertex 6.59117 28.1573 0
    endloop
  endfacet
  facet normal -0.932472 0.361241 0
    outer loop
      vertex 6.59117 28.1573 0
      vertex 7.30805 30.0078 10
      vertex 7.30805 30.0078 0
    endloop
  endfacet
  facet normal -0.739009 0.673696 0
    outer loop
      vertex 5.25423 26.6907 10
      vertex 6.59117 28.1573 10
      vertex 5.25423 26.6907 0
    endloop
  endfacet
  facet normal -0.739009 0.673696 0
    outer loop
      vertex 5.25423 26.6907 0
      vertex 6.59117 28.1573 10
      vertex 6.59117 28.1573 0
    endloop
  endfacet
  facet normal -0.445738 0.895163 0
    outer loop
      vertex 3.47778 25.8061 10
      vertex 5.25423 26.6907 10
      vertex 3.47778 25.8061 0
    endloop
  endfacet
  facet normal -0.445738 0.895163 0
    outer loop
      vertex 3.47778 25.8061 0
      vertex 5.25423 26.6907 10
      vertex 5.25423 26.6907 0
    endloop
  endfacet
  facet normal -0.0922688 0.995734 0
    outer loop
      vertex 1.50175 25.623 10
      vertex 3.47778 25.8061 10
      vertex 1.50175 25.623 0
    endloop
  endfacet
  facet normal -0.0922688 0.995734 0
    outer loop
      vertex 1.50175 25.623 0
      vertex 3.47778 25.8061 10
      vertex 3.47778 25.8061 0
    endloop
  endfacet
  facet normal 0.273663 0.961826 0
    outer loop
      vertex 0 26.0503 10
      vertex 1.50175 25.623 10
      vertex 0 26.0503 0
    endloop
  endfacet
  facet normal 0.273663 0.961826 0
    outer loop
      vertex 0 26.0503 0
      vertex 1.50175 25.623 10
      vertex 1.50175 25.623 0
    endloop
  endfacet
  facet normal -1 0 0
    outer loop
      vertex 0 13.9497 10
      vertex 0 26.0503 10
      vertex 0 13.9497 0
    endloop
  endfacet
  facet normal -1 0 0
    outer loop
      vertex 0 13.9497 0
      vertex 0 26.0503 10
      vertex 0 26.0503 0
    endloop
  endfacet
  facet normal 0.273663 -0.961826 0
    outer loop
      vertex 0 13.9497 0
      vertex 1.50175 14.377 0
      vertex 1.50175 14.377 10
    endloop
  endfacet
  facet normal 0.273663 -0.961826 0
    outer loop
      vertex 0 13.9497 10
      vertex 0 13.9497 0
      vertex 1.50175 14.377 10
    endloop
  endfacet
  facet normal -0.0922688 -0.995734 0
    outer loop
      vertex 1.50175 14.377 0
      vertex 3.47778 14.1939 0
      vertex 3.47778 14.1939 10
    endloop
  endfacet
  facet normal -0.0922688 -0.995734 0
    outer loop
      vertex 1.50175 14.377 10
      vertex 1.50175 14.377 0
      vertex 3.47778 14.1939 10
    endloop
  endfacet
  facet normal -0.445738 -0.895163 0
    outer loop
      vertex 3.47778 14.1939 0
      vertex 5.25423 13.3093 0
      vertex 5.25423 13.3093 10
    endloop
  endfacet
  facet normal -0.445738 -0.895163 0
    outer loop
      vertex 3.47778 14.1939 10
      vertex 3.47778 14.1939 0
      vertex 5.25423 13.3093 10
    endloop
  endfacet
  facet normal -0.739009 -0.673696 0
    outer loop
      vertex 6.59117 11.8427 0
      vertex 6.59117 11.8427 10
      vertex 5.25423 13.3093 0
    endloop
  endfacet
  facet normal -0.739009 -0.673696 0
    outer loop
      vertex 5.25423 13.3093 0
      vertex 6.59117 11.8427 10
      vertex 5.25423 13.3093 10
    endloop
  endfacet
  facet normal -0.932472 -0.361241 0
    outer loop
      vertex 7.30805 9.99225 0
      vertex 7.30805 9.99225 10
      vertex 6.59117 11.8427 0
    endloop
  endfacet
  facet normal -0.932472 -0.361241 0
    outer loop
      vertex 6.59117 11.8427 0
      vertex 7.30805 9.99225 10
      vertex 6.59117 11.8427 10
    endloop
  endfacet
  facet normal -1 0 0
    outer loop
      vertex 7.30805 8.00775 10
      vertex 7.30805 9.99225 10
      vertex 7.30805 8.00775 0
    endloop
  endfacet
  facet normal -1 0 0
    outer loop
      vertex 7.30805 8.00775 0
      vertex 7.30805 9.99225 10
      vertex 7.30805 9.99225 0
    endloop
  endfacet
  facet normal -0.932472 0.361241 0
    outer loop
      vertex 6.59117 6.15727 10
      vertex 7.30805 8.00775 10
      vertex 6.59117 6.15727 0
    endloop
  endfacet
  facet normal -0.932472 0.361241 0
    outer loop
      vertex 6.59117 6.15727 0
      vertex 7.30805 8.00775 10
      vertex 7.30805 8.00775 0
    endloop
  endfacet
  facet normal -0.739009 0.673696 0
    outer loop
      vertex 5.25423 4.69071 10
      vertex 6.59117 6.15727 10
      vertex 5.25423 4.69071 0
    endloop
  endfacet
  facet normal -0.739009 0.673696 0
    outer loop
      vertex 5.25423 4.69071 0
      vertex 6.59117 6.15727 10
      vertex 6.59117 6.15727 0
    endloop
  endfacet
  facet normal -0.445738 0.895163 0
    outer loop
      vertex 3.47778 3.80614 10
      vertex 5.25423 4.69071 10
      vertex 3.47778 3.80614 0
    endloop
  endfacet
  facet normal -0.445738 0.895163 0
    outer loop
      vertex 3.47778 3.80614 0
      vertex 5.25423 4.69071 10
      vertex 5.25423 4.69071 0
    endloop
  endfacet
  facet normal -0.0922688 0.995734 0
    outer loop
      vertex 1.50175 3.62304 10
      vertex 3.47778 3.80614 10
      vertex 1.50175 3.62304 0
    endloop
  endfacet
  facet normal -0.0922688 0.995734 0
    outer loop
      vertex 1.50175 3.62304 0
      vertex 3.47778 3.80614 10
      vertex 3.47778 3.80614 0
    endloop
  endfacet
  facet normal 0.273663 0.961826 0
    outer loop
      vertex 0 4.05032 10
      vertex 1.50175 3.62304 10
      vertex 0 4.05032 0
    endloop
  endfacet
  facet normal 0.273663 0.961826 0
    outer loop
      vertex 0 4.05032 0
      vertex 1.50175 3.62304 10
      vertex 1.50175 3.62304 0
    endloop
  endfacet
endsolid OpenSCAD_Model
